<svg xmlns="http://www.w3.org/2000/svg" version="1.1" xmlns:xlink="http://www.w3.org/1999/xlink" xmlns:svgjs="http://svgjs.dev/svgjs" width="1000" height="308" viewBox="0 0 1000 308"><g transform="matrix(1,0,0,1,-0.6060606060606233,0.008133026552457068)"><svg xmlns="http://www.w3.org/2000/svg" version="1.1" xmlns:xlink="http://www.w3.org/1999/xlink" xmlns:svgjs="http://svgjs.com/svgjs" viewBox="0 0 396 122" data-background-color="#1f2d5a" preserveAspectRatio="xMidYMid meet" height="308" width="1000"><defs></defs><g id="tight-bounds" transform="matrix(1,0,0,1,0.2400000000000091,-0.0032215235045498503)"><svg viewBox="0 0 395.52 122.00644304700909" height="122.00644304700909" width="395.52"><g><svg viewBox="0 0 637.8263468117791 196.75091994380358" height="122.00644304700909" width="395.52"><g><rect width="7.3056981794990286" height="170.84016203514057" x="215.87578428804187" y="12.955378954331508" fill="#000000" opacity="1" stroke-width="0" stroke="transparent" fill-opacity="1" class="rect-borderrectangle-0" data-fill-palette-color="primary" rx="1%" id="borderrectangle-0" data-palette-color="#000000"></rect></g><g transform="matrix(1,0,0,1,242.30634681177918,27.192059123926555)"><svg viewBox="0 0 395.5199999999999 142.36680169595047" height="142.36680169595047" width="395.5199999999999"><g><svg viewBox="0 0 395.5199999999999 142.36680169595047" height="142.36680169595047" width="395.5199999999999"><g><svg viewBox="0 0 395.5199999999999 81.01147234042551" height="81.01147234042551" width="395.5199999999999"><g transform="matrix(1,0,0,1,0,0)"><svg width="395.5199999999999" viewBox="1.95 -35.5 176.24 36.1" height="81.01147234042551" data-palette-color="#000000"><path d="M14.95 0.6L14.95 0.6Q10.45 0.6 7.33-1 4.2-2.6 1.95-5.2L1.95-5.2 6.4-9.5Q8.2-7.4 10.43-6.3 12.65-5.2 15.35-5.2L15.35-5.2Q18.4-5.2 19.95-6.53 21.5-7.85 21.5-10.1L21.5-10.1Q21.5-11.85 20.5-12.95 19.5-14.05 16.75-14.55L16.75-14.55 13.45-15.05Q3-16.7 3-25.2L3-25.2Q3-27.55 3.88-29.45 4.75-31.35 6.4-32.7 8.05-34.05 10.38-34.77 12.7-35.5 15.65-35.5L15.65-35.5Q19.6-35.5 22.55-34.2 25.5-32.9 27.6-30.35L27.6-30.35 23.1-26.1Q21.8-27.7 19.95-28.7 18.1-29.7 15.3-29.7L15.3-29.7Q12.45-29.7 11.03-28.63 9.6-27.55 9.6-25.6L9.6-25.6Q9.6-23.6 10.75-22.65 11.9-21.7 14.45-21.25L14.45-21.25 17.7-20.65Q23-19.7 25.53-17.28 28.05-14.85 28.05-10.5L28.05-10.5Q28.05-8 27.18-5.98 26.3-3.95 24.63-2.48 22.95-1 20.53-0.2 18.1 0.6 14.95 0.6ZM48.1 0L41.45 0 41.45-13.7 29.5-34.9 36.9-34.9 44.95-20.15 45.05-20.15 52.9-34.9 60.1-34.9 48.1-13.75 48.1 0ZM73.64 0.6L73.64 0.6Q69.14 0.6 66.02-1 62.9-2.6 60.65-5.2L60.65-5.2 65.09-9.5Q66.89-7.4 69.12-6.3 71.34-5.2 74.05-5.2L74.05-5.2Q77.09-5.2 78.65-6.53 80.19-7.85 80.19-10.1L80.19-10.1Q80.19-11.85 79.19-12.95 78.19-14.05 75.44-14.55L75.44-14.55 72.14-15.05Q61.7-16.7 61.7-25.2L61.7-25.2Q61.7-27.55 62.57-29.45 63.45-31.35 65.09-32.7 66.75-34.05 69.07-34.77 71.39-35.5 74.34-35.5L74.34-35.5Q78.3-35.5 81.25-34.2 84.19-32.9 86.3-30.35L86.3-30.35 81.8-26.1Q80.5-27.7 78.65-28.7 76.8-29.7 74-29.7L74-29.7Q71.14-29.7 69.72-28.63 68.3-27.55 68.3-25.6L68.3-25.6Q68.3-23.6 69.44-22.65 70.59-21.7 73.14-21.25L73.14-21.25 76.39-20.65Q81.69-19.7 84.22-17.28 86.75-14.85 86.75-10.5L86.75-10.5Q86.75-8 85.87-5.98 85-3.95 83.32-2.48 81.65-1 79.22-0.2 76.8 0.6 73.64 0.6ZM108.29 0L100.79 0 89.39-34.9 96.14-34.9 101.49-17.9 104.59-6.3 104.74-6.3 107.79-17.9 113.14-34.9 119.69-34.9 108.29 0ZM147.59 0L124.59 0 124.59-34.9 147.59-34.9 147.59-29.05 131.19-29.05 131.19-20.6 145.69-20.6 145.69-14.75 131.19-14.75 131.19-5.85 147.59-5.85 147.59 0ZM178.19-29.05L168.29-29.05 168.29 0 161.69 0 161.69-29.05 151.79-29.05 151.79-34.9 178.19-34.9 178.19-29.05Z" opacity="1" transform="matrix(1,0,0,1,0,0)" fill="#000000" class="undefined-text-0" data-fill-palette-color="primary" id="text-0"></path></svg></g></svg></g><g transform="matrix(1,0,0,1,0,100.1363366846638)"><svg viewBox="0 0 375.7439999999999 42.23046501128667" height="42.23046501128667" width="375.7439999999999"><g transform="matrix(1,0,0,1,0,0)"><svg width="375.7439999999999" viewBox="0.8 -37.3 420.81 47.3" height="42.23046501128667" data-palette-color="#000000"><path d="M19.7 0L12.2 0 0.8-34.9 7.55-34.9 12.9-17.9 16-6.3 16.15-6.3 19.2-17.9 24.55-34.9 31.1-34.9 19.7 0ZM44.45 0.6L44.45 0.6Q41.55 0.6 39.27-0.38 37-1.35 35.42-3.13 33.85-4.9 33-7.43 32.15-9.95 32.15-13.1L32.15-13.1Q32.15-16.2 32.97-18.7 33.8-21.2 35.35-22.98 36.9-24.75 39.15-25.73 41.4-26.7 44.25-26.7L44.25-26.7Q47.3-26.7 49.55-25.65 51.8-24.6 53.25-22.8 54.7-21 55.42-18.63 56.15-16.25 56.15-13.55L56.15-13.55 56.15-11.45 38.8-11.45 38.8-10.8Q38.8-7.95 40.4-6.23 42-4.5 45.15-4.5L45.15-4.5Q47.55-4.5 49.07-5.5 50.6-6.5 51.8-8.05L51.8-8.05 55.25-4.2Q53.65-1.95 50.87-0.68 48.1 0.6 44.45 0.6ZM44.35-21.9L44.35-21.9Q41.8-21.9 40.3-20.2 38.8-18.5 38.8-15.8L38.8-15.8 38.8-15.4 49.5-15.4 49.5-15.85Q49.5-18.55 48.17-20.23 46.85-21.9 44.35-21.9ZM74.55 0L69.95 0Q66.65 0 64.92-1.73 63.2-3.45 63.2-6.65L63.2-6.65 63.2-21 59.35-21 59.35-26.1 61.35-26.1Q62.8-26.1 63.32-26.78 63.85-27.45 63.85-28.8L63.85-28.8 63.85-33.25 69.59-33.25 69.59-26.1 74.95-26.1 74.95-21 69.59-21 69.59-5.1 74.55-5.1 74.55 0ZM90.84 0.6L90.84 0.6Q87.94 0.6 85.67-0.38 83.39-1.35 81.82-3.13 80.24-4.9 79.39-7.43 78.54-9.95 78.54-13.1L78.54-13.1Q78.54-16.2 79.37-18.7 80.19-21.2 81.74-22.98 83.29-24.75 85.54-25.73 87.79-26.7 90.64-26.7L90.64-26.7Q93.69-26.7 95.94-25.65 98.19-24.6 99.64-22.8 101.09-21 101.82-18.63 102.54-16.25 102.54-13.55L102.54-13.55 102.54-11.45 85.19-11.45 85.19-10.8Q85.19-7.95 86.79-6.23 88.39-4.5 91.54-4.5L91.54-4.5Q93.94-4.5 95.47-5.5 96.99-6.5 98.19-8.05L98.19-8.05 101.64-4.2Q100.04-1.95 97.27-0.68 94.49 0.6 90.84 0.6ZM90.74-21.9L90.74-21.9Q88.19-21.9 86.69-20.2 85.19-18.5 85.19-15.8L85.19-15.8 85.19-15.4 95.89-15.4 95.89-15.85Q95.89-18.55 94.57-20.23 93.24-21.9 90.74-21.9ZM114.59 0L108.19 0 108.19-26.1 114.59-26.1 114.59-20.7 114.84-20.7Q115.09-21.75 115.62-22.73 116.14-23.7 116.99-24.45 117.84-25.2 119.02-25.65 120.19-26.1 121.74-26.1L121.74-26.1 123.14-26.1 123.14-20.05 121.14-20.05Q117.89-20.05 116.24-19.1 114.59-18.15 114.59-16L114.59-16 114.59 0ZM131.04-29.9L131.04-29.9Q129.04-29.9 128.16-30.8 127.29-31.7 127.29-33.1L127.29-33.1 127.29-34.1Q127.29-35.5 128.16-36.4 129.04-37.3 131.04-37.3L131.04-37.3Q132.99-37.3 133.89-36.4 134.79-35.5 134.79-34.1L134.79-34.1 134.79-33.1Q134.79-31.7 133.89-30.8 132.99-29.9 131.04-29.9ZM127.84 0L127.84-26.1 134.24-26.1 134.24 0 127.84 0ZM148.04 0L141.64 0 141.64-26.1 148.04-26.1 148.04-21.75 148.29-21.75Q149.09-23.85 150.81-25.28 152.54-26.7 155.59-26.7L155.59-26.7Q159.64-26.7 161.79-24.05 163.94-21.4 163.94-16.5L163.94-16.5 163.94 0 157.54 0 157.54-15.85Q157.54-18.65 156.54-20.05 155.54-21.45 153.24-21.45L153.24-21.45Q152.24-21.45 151.31-21.18 150.39-20.9 149.66-20.38 148.94-19.85 148.49-19.07 148.04-18.3 148.04-17.25L148.04-17.25 148.04 0ZM193.78 0L190.23 0Q188.13 0 186.91-1.23 185.68-2.45 185.38-4.5L185.38-4.5 185.08-4.5Q184.43-1.95 182.43-0.68 180.43 0.6 177.48 0.6L177.48 0.6Q173.48 0.6 171.33-1.5 169.18-3.6 169.18-7.1L169.18-7.1Q169.18-11.15 172.08-13.13 174.98-15.1 180.33-15.1L180.33-15.1 184.78-15.1 184.78-17Q184.78-19.2 183.63-20.4 182.48-21.6 179.93-21.6L179.93-21.6Q177.68-21.6 176.31-20.63 174.93-19.65 173.98-18.3L173.98-18.3 170.18-21.7Q171.63-23.95 174.03-25.33 176.43-26.7 180.38-26.7L180.38-26.7Q185.68-26.7 188.43-24.3 191.18-21.9 191.18-17.4L191.18-17.4 191.18-5.1 193.78-5.1 193.78 0ZM179.63-4.05L179.63-4.05Q181.78-4.05 183.28-5 184.78-5.95 184.78-7.8L184.78-7.8 184.78-11.25 180.68-11.25Q175.68-11.25 175.68-8.05L175.68-8.05 175.68-7.2Q175.68-5.6 176.71-4.83 177.73-4.05 179.63-4.05ZM205.38 0L198.98 0 198.98-26.1 205.38-26.1 205.38-20.7 205.63-20.7Q205.88-21.75 206.41-22.73 206.93-23.7 207.78-24.45 208.63-25.2 209.81-25.65 210.98-26.1 212.53-26.1L212.53-26.1 213.93-26.1 213.93-20.05 211.93-20.05Q208.68-20.05 207.03-19.1 205.38-18.15 205.38-16L205.38-16 205.38 0ZM230.48-12.3L235.03-26.1 241.03-26.1 230.53 4.65Q230.03 6.05 229.4 7.08 228.78 8.1 227.93 8.75 227.08 9.4 225.88 9.7 224.68 10 223.08 10L223.08 10 219.23 10 219.23 4.9 223.93 4.9 225.13 1.25 215.78-26.1 222.13-26.1 226.68-12.3 228.38-5.7 228.68-5.7 230.48-12.3ZM268.27 0.6L268.27 0.6Q263.77 0.6 260.65-1 257.52-2.6 255.27-5.2L255.27-5.2 259.72-9.5Q261.52-7.4 263.75-6.3 265.97-5.2 268.67-5.2L268.67-5.2Q271.72-5.2 273.27-6.53 274.82-7.85 274.82-10.1L274.82-10.1Q274.82-11.85 273.82-12.95 272.82-14.05 270.07-14.55L270.07-14.55 266.77-15.05Q256.32-16.7 256.32-25.2L256.32-25.2Q256.32-27.55 257.2-29.45 258.07-31.35 259.72-32.7 261.37-34.05 263.7-34.77 266.02-35.5 268.97-35.5L268.97-35.5Q272.92-35.5 275.87-34.2 278.82-32.9 280.92-30.35L280.92-30.35 276.42-26.1Q275.12-27.7 273.27-28.7 271.42-29.7 268.62-29.7L268.62-29.7Q265.77-29.7 264.35-28.63 262.92-27.55 262.92-25.6L262.92-25.6Q262.92-23.6 264.07-22.65 265.22-21.7 267.77-21.25L267.77-21.25 271.02-20.65Q276.32-19.7 278.85-17.28 281.37-14.85 281.37-10.5L281.37-10.5Q281.37-8 280.5-5.98 279.62-3.95 277.95-2.48 276.27-1 273.85-0.2 271.42 0.6 268.27 0.6ZM299.02-12.3L303.57-26.1 309.57-26.1 299.07 4.65Q298.57 6.05 297.95 7.08 297.32 8.1 296.47 8.75 295.62 9.4 294.42 9.7 293.22 10 291.62 10L291.62 10 287.77 10 287.77 4.9 292.47 4.9 293.67 1.25 284.32-26.1 290.67-26.1 295.22-12.3 296.92-5.7 297.22-5.7 299.02-12.3ZM321.92 0.6L321.92 0.6Q318.17 0.6 315.62-0.68 313.07-1.95 311.12-4.2L311.12-4.2 315.02-8Q316.47-6.35 318.19-5.4 319.92-4.45 322.17-4.45L322.17-4.45Q324.47-4.45 325.49-5.25 326.52-6.05 326.52-7.45L326.52-7.45Q326.52-8.6 325.79-9.28 325.07-9.95 323.32-10.2L323.32-10.2 320.72-10.55Q316.47-11.1 314.24-12.98 312.02-14.85 312.02-18.45L312.02-18.45Q312.02-20.35 312.72-21.88 313.42-23.4 314.72-24.48 316.02-25.55 317.84-26.13 319.67-26.7 321.92-26.7L321.92-26.7Q323.82-26.7 325.29-26.43 326.77-26.15 327.97-25.63 329.17-25.1 330.17-24.33 331.17-23.55 332.12-22.6L332.12-22.6 328.37-18.85Q327.22-20.05 325.62-20.85 324.02-21.65 322.12-21.65L322.12-21.65Q320.02-21.65 319.09-20.9 318.17-20.15 318.17-18.95L318.17-18.95Q318.17-17.65 318.94-16.98 319.72-16.3 321.57-16L321.57-16 324.22-15.65Q332.67-14.45 332.67-7.95L332.67-7.95Q332.67-6.05 331.89-4.48 331.12-2.9 329.72-1.78 328.32-0.65 326.34-0.03 324.37 0.6 321.92 0.6ZM350.67 0L346.07 0Q342.77 0 341.04-1.73 339.32-3.45 339.32-6.65L339.32-6.65 339.32-21 335.47-21 335.47-26.1 337.47-26.1Q338.92-26.1 339.44-26.78 339.97-27.45 339.97-28.8L339.97-28.8 339.97-33.25 345.72-33.25 345.72-26.1 351.07-26.1 351.07-21 345.72-21 345.72-5.1 350.67-5.1 350.67 0ZM366.96 0.6L366.96 0.6Q364.06 0.6 361.79-0.38 359.51-1.35 357.94-3.13 356.36-4.9 355.51-7.43 354.66-9.95 354.66-13.1L354.66-13.1Q354.66-16.2 355.49-18.7 356.31-21.2 357.86-22.98 359.41-24.75 361.66-25.73 363.91-26.7 366.76-26.7L366.76-26.7Q369.81-26.7 372.06-25.65 374.31-24.6 375.76-22.8 377.21-21 377.94-18.63 378.66-16.25 378.66-13.55L378.66-13.55 378.66-11.45 361.31-11.45 361.31-10.8Q361.31-7.95 362.91-6.23 364.51-4.5 367.66-4.5L367.66-4.5Q370.06-4.5 371.59-5.5 373.11-6.5 374.31-8.05L374.31-8.05 377.76-4.2Q376.16-1.95 373.39-0.68 370.61 0.6 366.96 0.6ZM366.86-21.9L366.86-21.9Q364.31-21.9 362.81-20.2 361.31-18.5 361.31-15.8L361.31-15.8 361.31-15.4 372.01-15.4 372.01-15.85Q372.01-18.55 370.69-20.23 369.36-21.9 366.86-21.9ZM390.71 0L384.31 0 384.31-26.1 390.71-26.1 390.71-21.75 390.96-21.75Q391.71-23.8 393.36-25.25 395.01-26.7 397.96-26.7L397.96-26.7Q400.66-26.7 402.61-25.4 404.56-24.1 405.51-21.45L405.51-21.45 405.61-21.45Q406.31-23.65 408.39-25.18 410.46-26.7 413.61-26.7L413.61-26.7Q417.46-26.7 419.54-24.05 421.61-21.4 421.61-16.5L421.61-16.5 421.61 0 415.21 0 415.21-15.85Q415.21-21.45 411.01-21.45L411.01-21.45Q410.06-21.45 409.19-21.18 408.31-20.9 407.64-20.38 406.96-19.85 406.56-19.07 406.16-18.3 406.16-17.25L406.16-17.25 406.16 0 399.76 0 399.76-15.85Q399.76-21.45 395.56-21.45L395.56-21.45Q394.66-21.45 393.79-21.18 392.91-20.9 392.24-20.38 391.56-19.85 391.14-19.07 390.71-18.3 390.71-17.25L390.71-17.25 390.71 0Z" opacity="1" transform="matrix(1,0,0,1,0,0)" fill="#000000" class="undefined-text-1" data-fill-palette-color="secondary" id="text-1"></path></svg></g></svg></g></svg></g></svg></g><g><svg viewBox="0 0 196.75091994380358 196.75091994380358" height="196.75091994380358" width="196.75091994380358"><g><svg xmlns="http://www.w3.org/2000/svg" viewBox="0.7930000000000001 0.293 28.914 28.914" x="0" y="0" height="196.75091994380358" width="196.75091994380358" class="icon-icon-0" data-fill-palette-color="accent" id="icon-0"><path fill-rule="evenodd" d="M10 22.586l11.879-11.88a1 1 0 0 0 0-1.413L20.707 8.12a1 1 0 0 0-1.414 0L7.414 20 10 22.586zM29 21.5c0 1.997-1.336 3.732-3.206 4.294C25.232 27.664 23.497 29 21.5 29a4.505 4.505 0 0 1-4.5-4.5c0-0.6 0.12-1.187 0.351-1.735L15 20.414l-5 5-2-2L5.414 26l1.793 1.793-1.414 1.414-5-5 1.414-1.414L4 24.586 6.586 22l-2-2 5-5-2.351-2.35A4.456 4.456 0 0 1 5.5 13 4.505 4.505 0 0 1 1 8.5c0-1.998 1.336-3.732 3.206-4.294C4.768 2.336 6.502 1 8.5 1 10.981 1 13 3.019 13 5.5c0 0.6-0.12 1.188-0.35 1.735l1.057 1.058-1.414 1.414-2.155-2.154 0.448-0.681A2.49 2.49 0 0 0 11 5.5C11 4.12 9.878 3 8.5 3c-1.242 0-2.3 0.936-2.462 2.176l-0.1 0.762-0.762 0.099A2.5 2.5 0 0 0 3 8.5a2.495 2.495 0 0 0 3.872 2.087l0.68-0.448L11 13.586l6.879-6.88a3.002 3.002 0 0 1 4.242 0l1.172 1.173a3.002 3.002 0 0 1 0 4.242L16.414 19l3.447 3.447-0.447 0.68c-0.27 0.412-0.414 0.887-0.414 1.373 0 1.379 1.121 2.5 2.5 2.5 1.241 0 2.3-0.935 2.463-2.176l0.1-0.761 0.761-0.1A2.5 2.5 0 0 0 27 21.5c0-1.38-1.121-2.5-2.5-2.5-0.486 0-0.961 0.144-1.373 0.414l-0.68 0.447-2.154-2.154 1.414-1.414 1.058 1.058A4.46 4.46 0 0 1 24.5 17c2.481 0 4.5 2.019 4.5 4.5zM25.793 8.207l-4-4 1.414-1.414L24.5 4.086 28.293 0.293l1.414 1.414L25.914 5.5l1.293 1.293-1.414 1.414z" fill="#2f76db" data-fill-palette-color="accent"></path></svg></g></svg></g></svg></g></svg><rect width="395.52" height="122.00644304700909" fill="none" stroke="none" visibility="hidden"></rect></g></svg></g></svg>